<svg width="50" height="51" viewBox="0 0 50 51" fill="none" xmlns="http://www.w3.org/2000/svg">
<g clip-path="url(#clip0_2_489)">
<path d="M21.1458 34.9918C21.1458 33.6376 20.625 32.3876 19.6875 31.346L13.2292 24.8876C12.9167 24.5751 12.3958 24.471 11.9792 24.5751C11.5625 24.6793 11.1458 25.096 11.0417 25.6168C10.8333 26.6585 10.3125 28.9501 10.8333 30.8251L10.9375 31.0335L13.2292 33.3251L12.5 33.4293C11.4583 33.4293 10.5208 33.0126 9.79167 32.2835L7.08333 29.5751V23.221C7.08333 21.346 5.9375 19.6793 4.27083 18.9501C3.4375 18.6376 2.5 18.4293 1.66667 18.4293H0.625V31.1376C0.625 32.1793 1.04167 33.1168 1.77083 33.846L9.27083 41.346V41.6585H6.45833V49.5751H23.5417V41.6585H21.1458V34.9918ZM3.125 32.4918C2.8125 32.1793 2.60417 31.7626 2.60417 31.2418V20.721C2.8125 20.8251 3.125 20.8251 3.33333 20.9293C4.27083 21.346 4.89583 22.2835 4.89583 23.221V30.5126L8.22917 33.846C9.375 34.9918 10.9375 35.6168 12.5 35.6168L15.1042 35.2001C15.5208 35.096 15.9375 34.7835 16.0417 34.3668C16.1458 33.9501 16.0417 33.4293 15.7292 33.1168L12.6042 29.9918C12.3958 29.1585 12.5 28.221 12.6042 27.3876L18.0208 32.8043C18.6458 33.4293 18.9583 34.1585 18.9583 34.9918V41.8668H11.1458V41.5543C11.1458 40.9293 10.9375 40.4085 10.5208 39.9918L3.125 32.4918ZM21.3542 43.9501V47.7001H8.54167V43.9501H9.16667H21.1458H21.3542ZM45.8333 19.0543C44.1667 19.7835 43.0208 21.4501 43.0208 23.3251V29.6793L40.3125 32.3876C39.5833 33.1168 38.6458 33.5335 37.6042 33.5335L36.875 33.4293L39.1667 31.1376L39.2708 30.9293C39.7917 28.9501 39.375 26.7626 39.0625 25.6168C38.9583 25.2001 38.6458 24.7835 38.125 24.6793C37.7083 24.5751 37.1875 24.6793 36.875 24.9918L30.4167 31.4501C29.4792 32.3876 28.9583 33.7418 28.9583 35.096V41.971H26.5625V49.8876H43.6458V41.971H40.9375V41.5543L48.4375 34.0543C49.1667 33.3251 49.5833 32.3876 49.5833 31.346V18.5335H48.5417C47.5 18.5335 46.6667 18.7418 45.8333 19.0543ZM41.4583 43.9501V47.7001H28.6458V43.9501H28.9583H40.9375H41.4583ZM47.3958 31.2418C47.3958 31.7626 47.1875 32.1793 46.875 32.4918L39.375 39.9918C38.9583 40.4085 38.75 40.9293 38.75 41.5543V41.8668H30.9375V34.9918C30.9375 34.1585 31.25 33.4293 31.875 32.8043L37.2917 27.3876C37.3958 28.221 37.5 29.1585 37.2917 29.9918L34.1667 33.1168C33.8542 33.4293 33.75 33.9501 33.8542 34.3668C33.9583 34.7835 34.375 35.096 34.7917 35.2001L37.2917 35.6168H37.5C39.1667 35.6168 40.625 34.9918 41.7708 33.846L45.1042 30.5126V23.3251C45.1042 22.2835 45.7292 21.346 46.6667 21.0335C46.875 20.9293 47.1875 20.8251 47.3958 20.8251V31.2418ZM25.3125 7.70014C21.5625 7.49181 18.4375 10.4085 18.2292 14.1585C18.125 15.9293 18.75 17.7001 20 19.0543C21.25 20.4085 22.9167 21.1376 24.6875 21.2418C24.7917 21.2418 24.8958 21.2418 25 21.2418C28.5417 21.2418 31.5625 18.4293 31.7708 14.7835C31.9792 11.0335 29.0625 7.90847 25.3125 7.70014ZM24.7917 19.1585C23.5417 19.0543 22.3958 18.5335 21.5625 17.596C20.7292 16.6585 20.3125 15.5126 20.3125 14.2626C20.4167 11.7626 22.5 9.78347 25 9.78347C25.1042 9.78347 25.2083 9.78347 25.2083 9.78347C27.8125 9.88764 29.7917 12.0751 29.6875 14.6793C29.5833 17.2835 27.3958 19.2626 24.7917 19.1585Z" fill="#2F82AB"/>
<path d="M38.2917 15.8333V11.25L35.5833 10.625C35.375 9.6875 34.9583 8.85417 34.4375 7.91667L35.8958 5.52083L32.5625 2.29167L30.1667 3.75C29.3333 3.22917 28.3958 2.91667 27.4583 2.70833L26.8333 0H22.25L21.625 2.70833C20.6875 2.91667 19.8542 3.33333 18.9167 3.85417L16.5208 2.39583L13.3958 5.72917L14.8542 8.125C14.3333 8.95833 14.0208 9.89583 13.7083 10.8333L11 11.4583V16.0417L13.7083 16.6667C13.9167 17.6042 14.3333 18.4375 14.8542 19.375L13.3958 21.7708L16.7292 25L19.125 23.5417C19.9583 24.0625 20.8958 24.375 21.8333 24.5833L22.4583 27.2917H27.0417L27.6667 24.5833C28.6042 24.375 29.4375 23.9583 30.375 23.4375L32.7708 24.8958L36 21.5625L34.5417 19.1667C35.0625 18.3333 35.375 17.3958 35.5833 16.4583L38.2917 15.8333ZM33.8125 14.7917L33.7083 15.4167C33.5 16.5625 33.0833 17.6042 32.4583 18.6458L32.1458 19.1667L33.3958 21.25L32.4583 22.1875L30.375 20.9375L29.8542 21.3542C28.9167 21.9792 27.7708 22.5 26.7292 22.7083L26.1042 22.8125L25.5833 25.2083H24.2292L23.6042 22.8125L22.9792 22.7083C21.8333 22.5 20.7917 22.0833 19.75 21.4583L19.2292 21.1458L17.1458 22.3958L16.1042 21.3542L17.3542 19.2708L16.9375 18.75C16.3125 17.8125 15.7917 16.6667 15.5833 15.625L15.4792 15L13.0833 14.4792V13.125L15.4792 12.5L15.5833 11.875C15.7917 10.7292 16.2083 9.6875 16.8333 8.64583L17.1458 8.125L15.8958 6.04167L16.8333 5.10417L18.9167 6.35417L19.4375 5.9375C20.375 5.3125 21.5208 4.79167 22.5625 4.58333L23.1875 4.47917L23.7083 2.08333H25.0625L25.6875 4.47917L26.3125 4.58333C27.4583 4.79167 28.5 5.20833 29.5417 5.83333L30.0625 6.14583L32.1458 4.89583L33.0833 5.83333L31.8333 7.91667L32.25 8.4375C32.875 9.375 33.3958 10.5208 33.6042 11.5625L33.7083 12.1875L36.1042 12.7083V14.0625L33.8125 14.7917Z" fill="#2F82AB"/>
</g>
<defs>
<clipPath id="clip0_2_489">
<rect width="50" height="50" fill="white" transform="translate(0 0.304321)"/>
</clipPath>
</defs>
</svg>
